<svg xmlns="http://www.w3.org/2000/svg" width="82.26" height="65.397" viewBox="0 0 82.26 65.397">
  <defs>
    <style>
      .cls-1 {
        fill: rgba(124,106,220,0.1);
      }
    </style>
  </defs>
  <g id="empty-white-box" transform="translate(0 -6.071)">
    <g id="Group_9" data-name="Group 9" transform="translate(0 6.071)">
      <path id="Path_3" data-name="Path 3" class="cls-1" d="M71.648,11.568a2.065,2.065,0,0,0-2.013-.843c-.029-.007-.058-.019-.087-.024l-31.4-4.608a2.072,2.072,0,0,0-1.019.106L11.986,15.416c-.011,0-.021.011-.032.015-.026.011-.051.028-.079.038a2.157,2.157,0,0,0-.383.218c-.036.026-.071.053-.107.082a2.026,2.026,0,0,0-.346.353c-.006.008-.014.013-.019.021L.4,30.667a2.083,2.083,0,0,0,1.161,3.247l9.214,2.379V59.073a2.085,2.085,0,0,0,1.475,1.993L45.988,71.374c.011.006.024,0,.035.007a2.164,2.164,0,0,0,.558.083s.01,0,.015,0h0a2.083,2.083,0,0,0,.588-.093c.061-.019.118-.046.181-.072a2.089,2.089,0,0,0,.243-.094L71.817,57.773a2.084,2.084,0,0,0,1.072-1.822V33.175l8.189-3.931a2.084,2.084,0,0,0,.8-3.075ZM38.07,10.293l24.506,3.6L46.32,21.449,20.578,16.706ZM13.613,19.659l29.5,5.436L34.439,38.1,5.578,30.649Zm1.331,37.872V37.368L34.829,42.5a2.16,2.16,0,0,0,.521.067,2.085,2.085,0,0,0,1.733-.928L44.513,30.5V66.566Zm53.778-2.808L48.678,65.844V32.937l3.66,7.776a2.083,2.083,0,0,0,1.186,1.074,2.014,2.014,0,0,0,.7.121,2.124,2.124,0,0,0,.9-.2l13.6-6.525,0,19.543ZM55.216,37.039,49.373,24.625l19.864-9.236,7.825,11.163Z" transform="translate(0 -6.071)"/>
    </g>
  </g>
</svg>
